<?xml version="1.0" encoding="UTF-8" standalone="no"?>
<!-- Created with Inkscape (http://www.inkscape.org/) -->

<svg
   width="1024"
   height="1024"
   viewBox="0 0 270.93333 270.93333"
   version="1.1"
   id="svg5"
   xml:space="preserve"
   inkscape:version="1.2.1 (9c6d41e, 2022-07-14)"
   sodipodi:docname="whatshack_icon v2.svg"
   xmlns:inkscape="http://www.inkscape.org/namespaces/inkscape"
   xmlns:sodipodi="http://sodipodi.sourceforge.net/DTD/sodipodi-0.dtd"
   xmlns="http://www.w3.org/2000/svg"
   xmlns:svg="http://www.w3.org/2000/svg"><sodipodi:namedview
     id="namedview7"
     pagecolor="#ffffff"
     bordercolor="#000000"
     borderopacity="0.25"
     inkscape:showpageshadow="2"
     inkscape:pageopacity="0.0"
     inkscape:pagecheckerboard="true"
     inkscape:deskcolor="#d1d1d1"
     inkscape:document-units="mm"
     showgrid="false"
     inkscape:lockguides="false"
     inkscape:zoom="0.49626629"
     inkscape:cx="660.93548"
     inkscape:cy="732.46966"
     inkscape:window-width="1389"
     inkscape:window-height="847"
     inkscape:window-x="185"
     inkscape:window-y="68"
     inkscape:window-maximized="0"
     inkscape:current-layer="layer1" /><defs
     id="defs2"><linearGradient
       id="linearGradient2053"
       inkscape:swatch="solid"><stop
         style="stop-color:#000000;stop-opacity:1;"
         offset="0"
         id="stop2051" /></linearGradient></defs><g
     inkscape:label="Ebene 1"
     inkscape:groupmode="layer"
     id="layer1"><path
       style="fill:#00a859;fill-opacity:1;stroke-width:0.214112"
       d="m 33.266294,238.38363 c 0,-0.1541 3.188917,-9.68007 10.070605,-30.08303 8.46209,-25.08858 7.971688,-23.50963 7.509819,-24.17936 -0.20883,-0.30282 -0.849614,-1.41773 -1.423961,-2.47758 -7.769134,-14.33655 -11.673299,-28.2133 -12.520135,-44.50091 -0.630691,-12.13038 1.446996,-26.00877 5.672184,-37.888671 6.539924,-18.388205 18.486066,-34.7298 33.942107,-46.430732 8.958995,-6.782374 17.973373,-11.567455 28.583947,-15.173156 7.50749,-2.551206 14.38879,-3.997155 23.55232,-4.948984 3.31649,-0.344488 13.81524,-0.344293 17.12896,3.21e-4 3.66746,0.381402 10.01437,1.283125 11.65942,1.656488 16.12887,3.660622 28.85305,9.478126 40.79801,18.652873 12.22233,9.387786 21.70991,20.837735 28.70115,34.637609 5.21714,10.297971 8.59718,21.393402 9.94696,32.652082 1.03979,8.67302 1.03917,16.3009 -0.002,25.15815 -1.99006,16.92941 -8.95971,34.06681 -19.53902,48.04383 -4.09042,5.40412 -10.60116,12.22496 -15.78834,16.54037 -15.56843,12.95194 -34.6753,20.94893 -54.38444,22.7621 -14.17888,1.30439 -27.33847,-0.0637 -40.35867,-4.19559 -4.73374,-1.50228 -9.121467,-3.28217 -13.949312,-5.65863 -2.254366,-1.10968 -4.214317,-2.01761 -4.355446,-2.01761 -0.141128,0 -1.861612,0.51934 -3.823295,1.15409 -1.961683,0.63475 -5.397354,1.73904 -7.634824,2.45399 -4.329404,1.38338 -17.739085,5.68303 -33.73784,10.81763 -5.366516,1.72232 -9.822721,3.13147 -9.902679,3.13147 -0.07996,0 -0.14538,-0.048 -0.14538,-0.10675 z M 143.42691,216.43028 c 5.72537,-0.48193 11.43648,-1.50317 16.59367,-2.96724 21.54074,-6.11514 39.76182,-20.63186 50.689,-40.38386 3.21795,-5.81681 6.1247,-13.24826 7.96312,-20.35876 0.35419,-1.36994 1.22933,-6.16758 1.59797,-8.76047 2.48262,-17.46127 -1.10838,-36.32094 -9.88635,-51.922158 C 201.77901,76.74341 188.5925,64.426447 172.97436,57.09475 162.65279,52.249447 152.98368,49.802325 141.66002,49.169515 110.1937,47.411054 80.314574,63.818091 64.371741,91.609572 c -3.967204,6.915607 -6.835844,14.323748 -8.723603,22.528298 -1.568445,6.81678 -2.041206,11.14513 -2.041206,18.68826 0,7.54345 0.467753,11.82178 2.051051,18.76003 2.311623,10.1299 6.488015,19.73878 12.196912,28.06218 l 1.568567,2.28693 -5.102352,15.1632 c -2.806293,8.33976 -5.170941,15.33181 -5.254773,15.53789 -0.09195,0.22604 -0.0562,0.3747 0.09012,0.3747 0.133396,0 3.491879,-1.04655 7.463299,-2.32566 17.138527,-5.51996 24.154404,-7.74289 24.429658,-7.74033 0.16173,0.001 1.028883,0.45226 1.927008,1.00168 12.192108,7.45844 24.444458,11.39521 39.102548,12.56394 2.08079,0.16591 9.00444,0.11685 11.34794,-0.0804 z"
       id="path966"
       sodipodi:nodetypes="cssssssssssssssssssssssssccsssscsssssssscsssscssss" /><text
       xml:space="preserve"
       style="font-size:3.175px;white-space:pre;inline-size:21.4674;display:inline;fill:#ffffff;fill-opacity:1;stroke:none;stroke-width:0.499999;stroke-opacity:0"
       x="88.251152"
       y="107.46962"
       id="text1601"
       transform="translate(2.6186409,-29.903381)" /><g
       inkscape:label="Ebene 1"
       id="layer1-4"
       transform="matrix(1.1825931,0,0,1.1825931,-24.735277,-23.532083)"><path
         id="path189"
         style="fill:#00a85a;fill-opacity:1;stroke:none;stroke-opacity:1"
         d="m 114.97608,125.18177 a 14.994517,14.994517 0 0 0 -14.14384,10.05675 h 28.28819 a 14.994517,14.994517 0 0 0 -14.14435,-10.05675 z m 43.12863,0.37517 a 14.994517,14.994517 0 0 0 -13.99966,9.68158 h 27.99932 a 14.994517,14.994517 0 0 0 -13.99966,-9.68158 z m -57.84453,11.81168 a 14.994517,14.994517 0 0 0 -0.278538,2.80758 14.994517,14.994517 0 0 0 14.994438,14.99495 14.994517,14.994517 0 0 0 14.99495,-14.99495 14.994517,14.994517 0 0 0 -0.27854,-2.80758 z m 43.19529,0 a 14.994517,14.994517 0 0 0 -0.34519,3.18275 14.994517,14.994517 0 0 0 14.99443,14.99444 14.994517,14.994517 0 0 0 14.99443,-14.99444 14.994517,14.994517 0 0 0 -0.3452,-3.18275 z" /><path
         id="rect722"
         style="fill:#00a85a;fill-opacity:1;stroke:none;stroke-opacity:1"
         d="m 109.47454,93.786028 24.37583,5.552515 c 2.59723,0.746337 3.78826,0.51522 6.44945,-0.17933 l 23.12397,-6.035225 c 2.56832,-0.396296 2.93165,0.306097 4.02993,2.186373 l 11.50033,23.895609 c 0,0 -28.49712,3.46599 -42.81581,3.46859 -14.38329,0.003 -43.010237,-3.46859 -43.010237,-3.46859 L 103.89739,96.608344 c 1.8644,-3.447928 3.70578,-3.227807 5.57715,-2.822316 z"
         sodipodi:nodetypes="ccccccaccc" /><path
         id="rect722-2"
         style="fill:#00a85a;fill-opacity:1;stroke:none;stroke-opacity:1"
         d="m 91.763943,120.54641 c 0,0 29.789017,3.73261 44.759517,3.69356 14.72261,-0.0384 43.9988,-3.86204 43.9988,-3.86204 l 15.5358,15.37447 H 74.875271 Z"
         sodipodi:nodetypes="cacccc" /><text
         xml:space="preserve"
         style="font-size:3.175px;white-space:pre;inline-size:21.4674;display:inline;fill:#ffffff;fill-opacity:1;stroke:none;stroke-width:0.499999;stroke-opacity:0"
         x="88.251152"
         y="107.46962"
         id="text1601-8" /><path
         id="rect1269-4-5"
         style="fill:#00a85a;fill-opacity:1;stroke-width:0.49419;stroke-opacity:0"
         d="m 139.10262,158.84198 c -7.43874,-0.008 -15.15115,1.50347 -20.18946,3.81528 -3.17124,2.66249 -5.55601,8.6874 -3.76257,13.22399 21.58496,-6.23695 35.02925,-5.67549 42.34936,0 -0.27216,-5.55116 2.49008,-10.61833 -2.92386,-13.92163 -4.06777,-2.18521 -9.68778,-3.11111 -15.47347,-3.11764 z m 0.0868,1.21595 c 1.15726,0.001 2.30596,0.0354 3.43596,0.10129 v 6.03167 l -4.89686,0.005 v -6.12263 c 0.48764,-0.0104 0.97482,-0.0159 1.4609,-0.0155 z m -1.89033,0.0258 v 6.1128 l -4.78265,0.005 v -5.8198 c 1.57172,-0.15191 3.17719,-0.25375 4.78265,-0.29817 z m 5.75572,0.10077 c 1.32032,0.0874 2.61097,0.22115 3.85041,0.40617 v 5.59553 l -3.85041,0.004 z m -10.9678,0.23926 v 5.77794 l -3.9548,0.005 v -5.25601 c 1.27604,-0.20962 2.60111,-0.38729 3.9548,-0.52658 z m 15.24765,0.23306 c 1.39751,0.22418 2.72597,0.51484 3.95428,0.87798 v 4.64675 l -3.95428,0.004 z m -19.63188,0.36535 v 5.18418 l -3.90312,0.005 v -4.37286 c 1.22062,-0.30676 2.53083,-0.58047 3.90312,-0.81597 z m 24.01559,0.64389 c 0.62879,0.19855 1.22997,0.41702 1.79782,0.65629 0.55476,0.2655 1.01664,0.54663 1.39992,0.84233 v 3.01325 l -3.19774,0.003 z m -28.34814,0.28164 v 4.2633 l -3.15847,0.004 v -3.1905 c 0.0951,-0.0674 0.19012,-0.13285 0.28422,-0.19482 0.87672,-0.31554 1.84074,-0.61055 2.87425,-0.8816 z m -3.58738,1.39629 v 2.87115 l -2.53008,0.003 c 0.59641,-1.09487 1.55492,-2.10834 2.53008,-2.87373 z m 35.56269,0.18914 c 0.83192,0.79502 1.17629,1.68341 1.27589,2.64273 l -1.27589,0.002 z m -38.26382,3.34398 h 2.70113 v 6.72156 c -1.03639,0.25802 -2.09283,0.53144 -3.17242,0.8232 -0.99414,-2.35194 -0.61718,-5.1602 0.47129,-7.54476 z m 3.13004,0 h 3.15847 v 5.87561 c -1.02985,0.22842 -2.08223,0.47433 -3.15847,0.73898 z m 3.5879,0 h 3.90312 v 4.99505 c -1.26247,0.23162 -2.56251,0.49282 -3.90312,0.78548 z m 4.33255,0 h 3.9548 v 4.29018 c -1.27337,0.17387 -2.59097,0.38232 -3.9548,0.62684 z m 4.38423,0 h 4.78265 v 3.75533 c -1.51767,0.0993 -3.11079,0.2573 -4.78265,0.47697 z m 5.21208,0 h 4.89686 v 3.65663 c -1.53375,-0.053 -3.16538,-0.0296 -4.89686,0.0718 z m 5.32629,0 h 3.85041 v 4.03697 c -1.207,-0.18053 -2.48962,-0.30235 -3.85041,-0.36277 z m 4.27985,0 h 3.95428 v 5.05396 c -1.2125,-0.39904 -2.52949,-0.71659 -3.95428,-0.94982 z m 4.38371,0 h 3.19774 v 6.65954 c -0.96891,-0.56224 -2.0339,-1.04936 -3.19774,-1.45934 z m 3.62717,0 h 1.33738 c 0.19511,2.25367 -0.54522,4.8331 -0.40307,7.54476 -0.31251,-0.22661 -0.63708,-0.44378 -0.97359,-0.65164 h 0.0393 z" /></g></g></svg>
